<?xml version="1.0"?><svg id="Outline" viewBox="0 0 512 512" xmlns="http://www.w3.org/2000/svg"><defs><style>.cls-1{fill:#231f20;}</style></defs><path class="cls-1" d="M179.3,386.89H116.92a36.31,36.31,0,0,1-36.27-36.27V116.41a36.31,36.31,0,0,1,36.27-36.27H304.46a36.31,36.31,0,0,1,36.27,36.27v21.84a8,8,0,0,1-16,0V116.41a20.3,20.3,0,0,0-20.27-20.27H116.92a20.3,20.3,0,0,0-20.27,20.27V350.62a20.3,20.3,0,0,0,20.27,20.27H179.3a8,8,0,1,1,0,16Z"/><path class="cls-1" d="M301.32,431.86H207.57c-20,0-36.27-16.05-36.27-35.77V166c0-19.72,16.27-35.77,36.27-35.77H395.08c20,0,36.27,16.05,36.27,35.77V307a8,8,0,0,1-16,0V166a20,20,0,0,0-20.27-19.77H207.57A20,20,0,0,0,187.3,166V396.09a20,20,0,0,0,20.27,19.77h93.75a8,8,0,1,1,0,16Z"/><path class="cls-1" d="M335.74,210.13H228a8,8,0,0,1,0-16H335.74a8,8,0,0,1,0,16Z"/><path class="cls-1" d="M335.74,259.26H228a8,8,0,0,1,0-16H335.74a8,8,0,0,1,0,16Z"/><path class="cls-1" d="M310.3,308.39H228a8,8,0,0,1,0-16H310.3a8,8,0,1,1,0,16Z"/><path class="cls-1" d="M374.72,431.86a8,8,0,0,1-8-8V340.15a8,8,0,0,1,16,0v83.71A8,8,0,0,1,374.72,431.86Z"/><path class="cls-1" d="M413.78,390H335.66a8,8,0,0,1,0-16h78.12a8,8,0,0,1,0,16Z"/></svg>